<?xml version="1.0" encoding="utf-8"?>
<!-- Generator: Adobe Illustrator 16.0.0, SVG Export Plug-In . SVG Version: 6.00 Build 0)  -->
<!DOCTYPE svg PUBLIC "-//W3C//DTD SVG 1.1//EN" "http://www.w3.org/Graphics/SVG/1.1/DTD/svg11.dtd">
<svg version="1.1" id="Layer_1" xmlns="http://www.w3.org/2000/svg" xmlns:xlink="http://www.w3.org/1999/xlink" x="0px" y="0px"
	 width="456.714px" height="97.178px" viewBox="0 0 456.714 97.178" style="enable-background:new 0 0 456.714 97.178;"
	 xml:space="preserve">
<g>
	<g>
		<g>
			<path style="fill:#ED2F58;" d="M265.976,72.674c-13.196,0-23.932-10.794-23.932-24.066c0-13.261,10.735-24.048,23.932-24.048
				c13.199,0,23.937,10.788,23.937,24.048C289.912,61.878,279.175,72.674,265.976,72.674 M265.984,35.736
				c-7.061,0-12.806,5.775-12.806,12.873c0,7.095,5.745,12.866,12.806,12.866c7.059,0,12.802-5.771,12.802-12.866
				C278.789,41.511,273.046,35.736,265.984,35.736"/>
			<path style="fill:#ED2F58;" d="M328.56,79.551c-16.974,0-30.785-13.88-30.785-30.941c0-17.065,13.812-30.947,30.785-30.947
				c16.98,0,30.794,13.884,30.794,30.947C359.354,65.671,345.54,79.551,328.56,79.551 M328.56,28.896
				c-10.813,0-19.606,8.844-19.606,19.714c0,10.879,8.794,19.728,19.606,19.728c10.815,0,19.613-8.851,19.613-19.728
				C348.173,37.741,339.375,28.896,328.56,28.896"/>
			<path style="fill:#1A181D;" d="M444.931,77.886V45.379c0-11.098-4.382-16.723-13.027-16.723
				c-12.818,0-13.04,10.913-13.146,16.159l-0.01,0.475v32.598h-11.822V45.279l-0.009-0.463c-0.105-5.246-0.326-16.159-13.146-16.159
				c-8.646,0-13.028,5.626-13.028,16.723v32.509h-11.785v-35.19c0-5.533,1.109-10.342,3.298-14.291
				c3.971-6.867,11.283-10.644,20.593-10.644c11.614,0,17.415,5.528,20.007,9.26c3.012-4.371,8.864-9.26,19.97-9.26
				c9.308,0,16.62,3.777,20.589,10.634c2.192,3.958,3.302,8.767,3.302,14.3v35.19h-11.783V77.886z"/>
			<path style="fill:#1A181D;" d="M59.64,79.364c-19.406,0-31.417-16.184-31.417-31.178c0-16.778,14.094-30.424,31.417-30.424
				c17.333,0,31.434,13.745,31.434,30.639C91.074,63.293,79.058,79.364,59.64,79.364 M59.64,28.654
				c-12.135,0-19.648,10.304-19.648,19.849c0,9.595,7.513,19.954,19.648,19.954c10.843,0,19.664-8.998,19.664-20.057
				C79.307,38.905,71.787,28.654,59.64,28.654"/>
			<path style="fill:#1A181D;" d="M202.517,79.395c-3.179,0-6.387-0.49-9.541-1.454c-12.774-3.914-21.519-16.506-21.267-30.623
				l0.009-0.459V0h11.77v24.153c5.417-4.295,12.132-6.647,19.031-6.647c16.98,0,30.794,13.884,30.794,30.947
				c0,8.25-3.208,16.014-9.036,21.87C218.45,76.17,210.722,79.395,202.517,79.395L202.517,79.395z M202.52,28.741
				c-0.624,0-1.256,0.03-1.891,0.089c-9.004,0.85-16.383,7.997-17.547,16.999c-0.733,5.675,0.987,11.377,4.716,15.643
				c3.729,4.265,9.095,6.711,14.722,6.711c0.847,0,1.71-0.055,2.562-0.165c8.95-1.146,16.081-8.547,16.956-17.594
				c0.546-5.638-1.229-11.041-4.994-15.211C213.328,31.1,208.034,28.741,202.52,28.741"/>
			<path style="fill:#1A181D;" d="M131.203,79.395c-3.179,0-6.387-0.49-9.541-1.454c-12.772-3.914-21.519-16.506-21.267-30.623
				l0.009-0.459V0h11.77v24.153c5.419-4.295,12.132-6.647,19.031-6.647c16.98,0,30.794,13.884,30.794,30.947
				c0,8.25-3.208,16.014-9.036,21.87C147.136,76.17,139.408,79.395,131.203,79.395L131.203,79.395z M131.206,28.741
				c-0.624,0-1.256,0.03-1.891,0.089c-9.004,0.85-16.384,7.997-17.547,16.999c-0.733,5.675,0.987,11.377,4.716,15.643
				c3.729,4.265,9.095,6.711,14.722,6.711c0.847,0,1.71-0.055,2.562-0.165c8.949-1.146,16.081-8.547,16.956-17.594
				c0.546-5.638-1.226-11.041-4.992-15.211C142.014,31.1,136.72,28.741,131.206,28.741"/>
			<path style="fill:#1A181D;" d="M0,97.178V84.897l0.47-0.035c6.662-0.511,6.662-5.277,6.662-12.492V30.844h11.765V72.37
				c0,8.953,0,14.361-6.264,19.709c-3.633,3.146-8.278,5.1-12.124,5.1H0L0,97.178z"/>
			<path style="fill:#1A181D;" d="M12.548,25.074c-3.896,0-7.065-3.186-7.065-7.1s3.169-7.1,7.065-7.1s7.065,3.186,7.065,7.1
				S16.444,25.074,12.548,25.074"/>
		</g>
	</g>
</g>
<g>
</g>
<g>
</g>
<g>
</g>
<g>
</g>
<g>
</g>
<g>
</g>
</svg>
