<?xml version="1.0" encoding="utf-8"?>
<!-- Generator: Adobe Illustrator 16.0.0, SVG Export Plug-In . SVG Version: 6.00 Build 0)  -->
<!DOCTYPE svg PUBLIC "-//W3C//DTD SVG 1.1//EN" "http://www.w3.org/Graphics/SVG/1.1/DTD/svg11.dtd">
<svg version="1.1" id="Layer_1" xmlns="http://www.w3.org/2000/svg" xmlns:xlink="http://www.w3.org/1999/xlink" x="0px" y="0px"
	 width="601.652px" height="228.196px" viewBox="0 0 601.652 228.196" style="enable-background:new 0 0 601.652 228.196;"
	 xml:space="preserve">
<path style="fill:#A7A9AC;" d="M352.408,205.985h-4.777v-1.189c-1.58,1.209-3.262,1.805-5.004,1.805
	c-2.893,0-5.313-1.088-7.26-3.262c-1.682-1.865-2.523-4.102-2.523-6.686c0-2.994,1.088-5.455,3.262-7.402
	c1.865-1.662,4.039-2.502,6.521-2.502c1.742,0,3.424,0.594,5.004,1.805v-1.189h4.777V205.985z M338.791,192.983
	c-0.738,0.943-1.107,2.174-1.107,3.67c0,1.744,0.492,3.139,1.498,4.143c0.963,0.965,2.133,1.457,3.527,1.457
	c1.641,0,2.932-0.637,3.896-1.908c0.717-0.963,1.086-2.193,1.086-3.711c0-1.703-0.492-3.076-1.477-4.102
	c-0.922-0.965-2.111-1.436-3.588-1.436C341.046,191.096,339.775,191.731,338.791,192.983z"/>
<path style="fill:#A7A9AC;" d="M364.156,188.573c1.066-0.881,2.277-1.332,3.65-1.332c0.473,0,1.066,0.041,1.764,0.123v4.285
	c-0.738-0.061-1.313-0.082-1.723-0.082c-1.395,0-2.357,0.391-2.891,1.17c-0.533,0.799-0.801,2.215-0.801,4.285v8.963h-4.777v-18.621
	h4.777V188.573z"/>
<path style="fill:#757679;" d="M185.782,113.4c-0.959,1.343-2.193,3.055-3.703,5.14c-1.516,2.094-3.128,4.355-4.836,6.785
	l-5.219,7.414c-1.777,2.521-3.421,4.863-4.935,7.023c-1.514,2.164-2.836,4.063-3.964,5.697l-1.123,1.623l-1.929-2.719
	c-1.297-1.826-2.726-3.83-4.287-6.016l-4.86-6.805c-1.678-2.348-3.307-4.648-4.889-6.902c-1.582-2.252-3.044-4.349-4.386-6.291
	c-1.341-1.938-2.466-3.578-3.375-4.919l-2.742-4.046v58.085h7.896v-33.553c0.735,1.066,1.537,2.238,2.407,3.518
	c1.274,1.877,2.658,3.887,4.15,6.027c1.485,2.133,2.913,4.195,4.278,6.182c1.35,1.969,2.627,3.793,3.797,5.426
	c1.152,1.609,2.085,2.873,2.772,3.756l1.278,1.645l1.154-1.732c0.67-1.008,1.521-2.277,2.552-3.813
	c1.031-1.533,2.146-3.189,3.346-4.965c1.198-1.773,2.445-3.607,3.739-5.502l3.815-5.578c1.244-1.818,2.429-3.529,3.555-5.134
	c0.015-0.021,0.029-0.042,0.043-0.062v32.801h8.184v-56.892L185.782,113.4z"/>
<path style="fill:#757679;" d="M237.567,133.063h7.172v2.32c2.285-2.215,4.992-3.305,8.121-3.305c3.445,0,6.434,1.09,8.93,3.305
	c3.059,2.707,4.324,6.328,4.324,12.41v17.191h-7.172v-16.629c0-3.129-0.387-5.414-1.16-6.855c-1.02-1.863-2.883-2.813-5.59-2.813
	s-5.168,1.266-6.258,3.129c-0.809,1.441-1.195,3.832-1.195,7.207v15.961h-7.172V133.063z"/>
<path style="fill:#757679;" d="M307.184,164.985h-7.172v-2.777c-3.234,2.496-6.504,3.762-9.844,3.762
	c-2.637,0-5.203-0.703-7.699-2.145c-2.637-1.512-4.711-3.586-6.188-6.188c-1.512-2.637-2.285-5.52-2.285-8.648
	c0-5.133,1.863-9.352,5.59-12.691c3.164-2.813,6.68-4.219,10.582-4.219c3.305,0,6.574,1.266,9.844,3.762v-2.777h7.172V164.985z
	 M283.77,141.606c-1.688,1.828-2.531,4.289-2.531,7.383c0,3.551,1.09,6.258,3.234,8.156c1.758,1.547,3.832,2.32,6.258,2.32
	c2.777,0,5.063-0.984,6.855-2.953c1.688-1.863,2.531-4.395,2.531-7.594c0-3.48-1.055-6.188-3.199-8.051
	c-1.723-1.512-3.832-2.285-6.328-2.285C287.883,138.583,285.633,139.602,283.77,141.606z"/>
<path style="fill:#757679;" d="M371.814,164.985h-7.172v-2.777c-3.234,2.496-6.504,3.762-9.844,3.762
	c-2.637,0-5.203-0.703-7.699-2.145c-2.637-1.512-4.711-3.586-6.188-6.188c-1.512-2.637-2.285-5.52-2.285-8.648
	c0-5.133,1.863-9.352,5.59-12.691c3.164-2.813,6.68-4.219,10.582-4.219c3.305,0,6.574,1.266,9.844,3.762v-20.884h7.172V164.985z
	 M348.435,141.571c-1.723,1.863-2.566,4.324-2.566,7.418c0,3.551,1.09,6.258,3.234,8.156c1.793,1.547,3.867,2.32,6.258,2.32
	c2.742,0,4.992-0.984,6.75-2.918c1.723-1.863,2.566-4.43,2.566-7.629c0-3.48-1.055-6.188-3.199-8.086
	c-1.688-1.512-3.762-2.25-6.258-2.25C352.513,138.583,350.263,139.567,348.435,141.571z"/>
<path style="fill:#757679;" d="M421.058,156.579c0.75,0.955,1.475,1.873,2.174,2.752c0.699,0.881,1.426,1.771,2.174,2.676
	c-1.449,1.158-3.072,2.074-4.873,2.752c-1.799,0.678-3.723,1.018-5.77,1.018c-2.352,0-4.563-0.441-6.637-1.32
	c-2.072-0.879-3.871-2.084-5.396-3.617c-1.523-1.533-2.734-3.328-3.635-5.391c-0.898-2.061-1.348-4.248-1.348-6.559
	s0.449-4.484,1.348-6.521c0.9-2.035,2.111-3.818,3.635-5.352c1.525-1.533,3.324-2.74,5.396-3.619
	c2.074-0.879,4.285-1.318,6.637-1.318c2.098,0,4.059,0.338,5.883,1.018c1.824,0.678,3.486,1.596,4.984,2.752l-4.572,5.352
	c-1.75-1.357-3.848-2.035-6.295-2.035c-1.451,0-2.773,0.252-3.975,0.754c-1.199,0.502-2.236,1.182-3.111,2.035
	c-0.873,0.855-1.549,1.873-2.023,3.053c-0.475,1.182-0.711,2.477-0.711,3.883c0,1.357,0.236,2.627,0.711,3.807
	c0.475,1.182,1.15,2.225,2.023,3.129c0.875,0.904,1.912,1.609,3.111,2.109c1.201,0.504,2.523,0.756,3.975,0.756
	C417.261,158.69,419.359,157.987,421.058,156.579z"/>
<path style="fill:#757679;" d="M460.197,137.563c2.883,3.199,4.324,6.996,4.324,11.426c0,5.168-1.863,9.457-5.59,12.797
	c-3.129,2.777-6.855,4.184-11.18,4.184c-5.027,0-9.176-1.828-12.445-5.449c-2.918-3.199-4.359-7.031-4.359-11.496
	c0-4.324,1.336-8.051,4.008-11.145c3.375-3.867,7.734-5.801,13.043-5.801C452.849,132.079,456.927,133.907,460.197,137.563z
	 M440.72,141.606c-1.688,1.828-2.531,4.289-2.531,7.383c0,3.516,1.09,6.223,3.234,8.156c1.758,1.547,3.867,2.32,6.293,2.32
	c2.848,0,5.203-1.02,7.031-3.023c1.688-1.863,2.531-4.359,2.531-7.523c0-3.41-1.055-6.082-3.199-7.98
	c-1.758-1.582-3.938-2.355-6.504-2.355C444.869,138.583,442.583,139.602,440.72,141.606z"/>
<path style="fill:#757679;" d="M506.222,132.079c3.762,0,6.891,1.125,9.387,3.375c1.547,1.441,2.672,3.094,3.34,4.957
	c0.668,1.898,0.984,4.359,0.984,7.383v17.191h-7.172v-16.629c0-3.234-0.387-5.59-1.16-7.031c-0.949-1.758-2.602-2.637-4.992-2.637
	s-4.641,1.16-5.625,2.953c-0.809,1.441-1.195,3.902-1.195,7.383v15.961h-7.172v-16.629c0-3.234-0.387-5.59-1.16-7.031
	c-0.949-1.758-2.602-2.637-5.027-2.637s-4.676,1.16-5.66,2.953c-0.809,1.477-1.195,3.938-1.195,7.383v15.961h-7.172v-31.922h7.172
	v2.32c2.145-2.215,4.676-3.305,7.629-3.305c3.516,0,6.539,1.441,9.105,4.324C498.945,133.52,502.25,132.079,506.222,132.079z"/>
<path style="fill:#757679;" d="M568.455,156.631c0.75,0.949,1.475,1.863,2.176,2.734c0.697,0.877,1.424,1.764,2.174,2.662
	c-1.451,1.15-3.074,2.063-4.873,2.736s-3.725,1.012-5.771,1.012c-2.35,0-4.563-0.438-6.635-1.313
	c-2.074-0.873-3.873-2.072-5.398-3.596c-1.523-1.525-2.734-3.311-3.635-5.361c-0.898-2.049-1.348-4.223-1.348-6.521
	c0-2.297,0.449-4.459,1.348-6.484c0.9-2.023,2.111-3.797,3.635-5.32c1.525-1.525,3.324-2.725,5.398-3.6
	c2.072-0.873,4.285-1.311,6.635-1.311c2.098,0,4.059,0.336,5.885,1.012c1.822,0.674,3.484,1.586,4.982,2.736l-4.572,5.322
	c-1.75-1.35-3.848-2.025-6.295-2.025c-1.451,0-2.775,0.252-3.975,0.75c-1.197,0.5-2.236,1.176-3.109,2.023
	c-0.875,0.852-1.551,1.863-2.025,3.037s-0.711,2.461-0.711,3.859c0,1.35,0.236,2.611,0.711,3.785
	c0.475,1.176,1.15,2.213,2.025,3.111c0.873,0.9,1.912,1.6,3.109,2.098c1.199,0.5,2.523,0.75,3.975,0.75
	C564.658,158.729,566.755,158.03,568.455,156.631z"/>
<path style="fill:#757679;" d="M583.933,154.227c0.984,2.004,1.934,3.375,2.813,4.113c0.879,0.773,2.004,1.16,3.34,1.16
	c1.512,0,2.672-0.457,3.41-1.371c0.668-0.773,0.984-1.617,0.984-2.566c0-0.633-0.176-1.195-0.527-1.688
	c-0.387-0.527-1.758-1.266-4.078-2.145l-3.27-1.266c-4.605-1.793-6.926-4.641-6.926-8.578c0-2.848,1.055-5.203,3.164-7.031
	c2.145-1.863,4.711-2.777,7.699-2.777c4.605,0,8.156,2.32,10.617,6.961l-5.625,2.848c-1.723-2.566-2.988-3.445-5.098-3.445
	c-2.285,0-3.902,1.301-3.902,3.234c0,0.633,0.176,1.195,0.492,1.652c0.352,0.457,1.688,1.16,4.043,2.074l2.953,1.125
	c5.344,2.074,7.629,4.676,7.629,8.754c0,3.094-1.16,5.695-3.516,7.77c-2.18,1.934-4.887,2.918-8.121,2.918
	c-5.801,0-9.633-2.988-12.023-9.316L583.933,154.227z"/>
<path style="fill:#757679;" d="M323.279,136.463c1.521-1.785,2.723-2.367,4.406-3.014c0.885-0.34,2.039-0.527,3.48-0.527
	c0.703,0,1.582,0.035,2.637,0.141v6.434c-1.16-0.035-2.004-0.07-2.496-0.07c-2.883,0-4.602,1.08-5.836,2.848
	c-0.523,0.75-0.596,1.461-0.596,1.461L323.279,136.463z"/>
<path style="fill:#757679;" d="M205.533,151.766c0.352,1.723,0.984,3.164,1.863,4.359c1.652,2.215,4.008,3.34,7.137,3.34
	c3.34,0,6.363-1.547,8.051-4.113l0.633-1.02l6.188,2.566c-3.586,6.047-8.543,9.07-14.906,9.07c-4.922,0-8.93-1.758-12.059-5.309
	c-2.848-3.27-4.289-7.137-4.289-11.672c0-5.238,1.828-9.563,5.484-12.902c2.953-2.707,6.434-4.043,10.406-4.043
	c4.535,0,8.332,1.688,11.355,5.063c1.547,1.723,2.707,3.867,3.445,6.504c0.563,1.969,0.844,4.008,0.844,6.117
	c0,0.352,0,1.02-0.035,2.039H205.533z M222.548,146.211c-0.527-2.004-1.266-3.656-2.285-4.922c-1.512-1.934-3.586-2.883-6.152-2.883
	c-4.359,0-7.559,2.883-8.578,7.805H222.548z"/>
<path style="fill:#757679;" d="M538.117,122.304c0,1.301-3.34,4.606-4.641,4.606s-4.641-3.341-4.641-4.642
	c0-1.23,3.375-4.535,4.641-4.535C534.777,117.734,538.117,121.039,538.117,122.304z M537.062,133.063v31.922h-7.172v-31.922H537.062
	z"/>
<polygon style="fill:#757679;" points="222.251,118.743 216.419,126.911 210.169,126.911 215.914,118.743 "/>
<path style="fill:#999999;" d="M327.988,202.387c-0.152-0.268-0.322-0.568-0.504-0.904s-0.439-0.797-0.775-1.385
	c-0.336,0.223-0.742,0.42-1.219,0.588s-0.973,0.301-1.49,0.398c-0.52,0.098-1.045,0.174-1.576,0.23s-1.008,0.084-1.428,0.084
	c-1.568,0-3.018-0.293-4.348-0.881s-2.477-1.365-3.443-2.332c-0.967-0.965-1.723-2.094-2.268-3.381
	c-0.547-1.287-0.818-2.619-0.818-3.99c0-0.055,0-0.273,0-0.328c0-1.371,0.271-2.703,0.818-3.99c0.545-1.287,1.301-2.416,2.268-3.381
	c0.967-0.967,2.113-1.744,3.443-2.332s2.779-0.881,4.348-0.881c0.42,0,0.896,0.027,1.428,0.084s1.057,0.133,1.576,0.23
	c0.518,0.098,1.014,0.23,1.49,0.398s0.883,0.365,1.219,0.588c0.336-0.588,0.594-1.049,0.775-1.385s0.352-0.637,0.504-0.904
	c0.154-0.266,0.301-0.523,0.441-0.775s0.336-0.574,0.588-0.967c-0.252-0.279-0.664-0.547-1.238-0.799s-1.238-0.475-1.994-0.672
	c-0.758-0.195-1.563-0.355-2.416-0.482c-0.854-0.125-1.701-0.189-2.541-0.189c-2.184,0-4.236,0.393-6.152,1.176
	c-1.918,0.785-3.6,1.885-5.041,3.297c-1.441,1.416-2.582,3.096-3.422,5.041c-0.809,1.873-1.218,3.91-1.248,6.107
	c0.03,2.197,0.439,4.234,1.248,6.107c0.84,1.945,1.98,3.625,3.422,5.041c1.441,1.412,3.123,2.512,5.041,3.297
	c1.916,0.783,3.969,1.176,6.152,1.176c0.84,0,1.688-0.064,2.541-0.189c0.854-0.127,1.658-0.287,2.416-0.482
	c0.756-0.197,1.42-0.42,1.994-0.672s0.986-0.52,1.238-0.799c-0.252-0.393-0.447-0.715-0.588-0.967S328.142,202.653,327.988,202.387z
	"/>
<path style="fill:#A7A9AC;" d="M485.554,190.684v4.504h8.338c-0.281,1.877-0.857,3.393-1.717,4.502
	c-1.605,2.051-3.9,3.09-6.818,3.09c-2.729,0-5.113-0.908-7.092-2.697c-2.34-2.107-3.525-4.836-3.525-8.113
	c0-2.871,0.928-5.373,2.762-7.438c2.027-2.281,4.656-3.438,7.813-3.438c1.971,0,3.74,0.514,5.258,1.525
	c0.764,0.516,1.682,1.32,2.73,2.391l0.088,0.088l3.361-3.271l-0.094-0.09c-1.1-1.049-1.699-1.605-2.07-1.918
	c-2.645-2.172-5.771-3.271-9.295-3.271c-2.793,0-5.395,0.686-7.732,2.035c-2.365,1.355-4.268,3.271-5.654,5.697
	c-1.365,2.383-2.057,4.963-2.057,7.668c0,2.762,0.68,5.283,2.078,7.711c1.359,2.35,3.238,4.23,5.59,5.588
	c2.371,1.381,5.029,2.08,7.904,2.08c2.572,0,4.928-0.592,7-1.758c1.941-1.098,3.461-2.619,4.518-4.518
	c1.293-2.369,1.949-5.072,1.949-8.029v-2.338H485.554z"/>
<path style="fill:#A7A9AC;" d="M549.769,187.364c2.666,0,4.758,0.922,6.297,2.789c0.84,1.004,1.373,2.111,1.6,3.301
	c0.164,0.924,0.246,1.969,0.246,3.139V206.6h-4.779v-9.68c0-2.113-0.287-3.527-0.861-4.225c-0.533-0.656-1.271-0.984-2.215-0.984
	c-1.23,0-2.152,0.43-2.789,1.271c-0.533,0.717-0.799,2.152-0.799,4.326v9.291h-4.779v-9.68c0-2.113-0.287-3.527-0.861-4.225
	c-0.533-0.656-1.291-0.984-2.256-0.984c-1.25,0-2.174,0.43-2.809,1.271c-0.533,0.717-0.801,2.152-0.801,4.326v9.291h-4.777v-18.621
	h4.777v0.984c0.719-0.615,1.354-1.047,1.949-1.271c0.594-0.227,1.313-0.328,2.152-0.328c1.867,0,3.568,0.738,5.066,2.234
	C545.689,188.102,547.576,187.364,549.769,187.364z"/>
<path style="fill:#A7A9AC;" d="M567.355,199.073c0.266,1.006,0.676,1.805,1.189,2.359c0.922,0.963,2.07,1.455,3.465,1.455
	c1.621,0,2.953-0.512,3.959-1.537c0.184-0.205,0.512-0.637,0.943-1.313l4.061,1.682c-0.924,1.537-1.846,2.666-2.748,3.383
	c-1.764,1.416-3.836,2.113-6.193,2.113c-2.953,0-5.354-1.088-7.199-3.262c-1.6-1.865-2.398-4.102-2.398-6.686
	c0-1.764,0.41-3.404,1.209-4.9c0.842-1.6,2.031-2.852,3.527-3.732c1.436-0.842,2.994-1.271,4.656-1.271
	c2.727,0,4.941,0.963,6.664,2.891c1.723,1.949,2.584,4.43,2.584,7.486c0,0.266,0,0.717-0.02,1.332H567.355z M576.296,195.504
	c-0.82-2.604-2.318-3.916-4.471-3.916c-2.236,0-3.836,1.395-4.471,3.916H576.296z"/>
<path style="fill:#A7A9AC;" d="M595.578,193.618c-1.088-1.537-1.744-1.988-2.83-1.988c-1.17,0-1.928,0.594-1.928,1.496
	c0,0.41,0.123,0.719,0.389,0.902c0.246,0.186,0.902,0.492,1.969,0.902l1.703,0.637c1.209,0.471,2.174,1.004,2.891,1.6
	c1.107,0.922,1.662,2.152,1.662,3.691c0,1.865-0.738,3.424-2.215,4.676c-1.293,1.127-2.893,1.682-4.758,1.682
	c-2.482,0-4.43-0.943-5.824-2.852c-0.492-0.676-0.984-1.641-1.457-2.932l3.896-1.559c0.596,1.168,1.129,1.947,1.621,2.379
	c0.471,0.43,1.066,0.656,1.783,0.656c1.313,0,2.174-0.779,2.174-1.928c0-0.391-0.143-0.719-0.43-0.943
	c-0.287-0.227-0.943-0.514-1.949-0.902l-1.887-0.719c-2.768-1.066-4.162-2.789-4.162-5.168c0-1.783,0.697-3.24,2.07-4.367
	c1.271-1.006,2.77-1.518,4.492-1.518c2.932,0,4.881,1.313,6.5,4.408L595.578,193.618z"/>
<path style="fill:#A7A9AC;" d="M446.244,196.981c0.293-0.605,0.762-1.797,1.406-3.574l4.258,1.172
	c-0.137,0.41-0.234,0.703-0.313,0.918c-0.684,2.09-1.406,3.809-2.207,5.176l4.492,5.313h-5.664l-1.66-1.992
	c-2.168,1.719-4.551,2.578-7.109,2.578c-2.891,0-5.215-0.898-6.953-2.676c-1.484-1.504-2.227-3.281-2.227-5.293
	c0-1.465,0.41-2.793,1.211-3.984s2.168-2.461,4.063-3.809c-0.977-1.25-1.66-2.305-2.051-3.145s-0.586-1.699-0.586-2.578
	c0-1.836,0.645-3.379,1.934-4.629c1.191-1.152,2.695-1.719,4.512-1.719c1.914,0,3.477,0.645,4.668,1.934
	c1.094,1.191,1.641,2.559,1.641,4.141c0,1.191-0.332,2.285-0.977,3.281c-0.664,0.996-1.758,2.031-3.301,3.145L446.244,196.981z
	 M438.021,193.778c-1.191,0.957-2.012,1.797-2.48,2.48s-0.703,1.426-0.703,2.188c0,1.113,0.449,2.031,1.328,2.793
	s1.953,1.133,3.242,1.133c1.582,0,3.008-0.605,4.297-1.797L438.021,193.778z M441.029,186.317c0.352-0.488,0.527-1.016,0.527-1.621
	c0-1.27-0.957-2.227-2.227-2.227c-0.801,0-1.406,0.293-1.816,0.879c-0.332,0.449-0.508,0.957-0.508,1.523
	c0,0.469,0.117,0.918,0.352,1.348s0.742,1.133,1.543,2.109C439.974,187.469,440.677,186.805,441.029,186.317z"/>
<path style="fill:#A7A9AC;" d="M393.498,205.797h-4.777v-1.189c-1.58,1.209-3.262,1.805-5.004,1.805
	c-2.893,0-5.313-1.088-7.26-3.262c-1.682-1.865-2.523-4.102-2.523-6.686c0-2.994,1.088-5.455,3.262-7.402
	c1.865-1.662,4.039-2.502,6.521-2.502c1.742,0,3.424,0.594,5.004,1.805v-10.563h4.777V205.797z M379.88,192.795
	c-0.738,0.963-1.107,2.174-1.107,3.67c0,1.744,0.492,3.139,1.498,4.143c0.963,0.965,2.133,1.457,3.527,1.457
	c1.619,0,2.912-0.637,3.855-1.887c0.717-0.984,1.086-2.236,1.086-3.732c0-1.703-0.492-3.076-1.455-4.102
	c-0.924-0.965-2.113-1.436-3.568-1.436C382.136,190.909,380.865,191.543,379.88,192.795z"/>
<path style="fill:#A7A9AC;" d="M408.291,192.815c-1.086-1.537-1.742-1.988-2.83-1.988c-1.168,0-1.928,0.594-1.928,1.496
	c0,0.41,0.123,0.719,0.391,0.902c0.246,0.186,0.902,0.492,1.969,0.902l1.701,0.637c1.211,0.471,2.174,1.004,2.893,1.6
	c1.107,0.922,1.66,2.152,1.66,3.691c0,1.865-0.738,3.424-2.215,4.676c-1.291,1.127-2.891,1.682-4.758,1.682
	c-2.48,0-4.43-0.943-5.824-2.852c-0.492-0.676-0.984-1.641-1.455-2.932l3.896-1.559c0.594,1.168,1.127,1.947,1.619,2.379
	c0.473,0.43,1.066,0.656,1.785,0.656c1.313,0,2.174-0.779,2.174-1.928c0-0.391-0.145-0.719-0.432-0.943
	c-0.287-0.227-0.943-0.514-1.947-0.902l-1.887-0.719c-2.77-1.066-4.164-2.789-4.164-5.168c0-1.783,0.697-3.24,2.072-4.367
	c1.271-1.006,2.768-1.518,4.49-1.518c2.934,0,4.881,1.313,6.502,4.408L408.291,192.815z"/>
<path style="fill:#A7A9AC;" d="M523.408,206.674h-4.777v-1.189c-1.58,1.209-3.262,1.805-5.004,1.805
	c-2.893,0-5.313-1.088-7.26-3.262c-1.682-1.865-2.523-4.102-2.523-6.686c0-2.994,1.088-5.455,3.262-7.402
	c1.865-1.662,4.039-2.502,6.521-2.502c1.742,0,3.424,0.594,5.004,1.805v-1.189h4.777V206.674z M509.791,193.672
	c-0.738,0.943-1.107,2.174-1.107,3.67c0,1.744,0.492,3.139,1.498,4.143c0.963,0.965,2.133,1.457,3.527,1.457
	c1.641,0,2.932-0.637,3.896-1.908c0.717-0.963,1.086-2.193,1.086-3.711c0-1.703-0.492-3.076-1.477-4.102
	c-0.922-0.965-2.111-1.436-3.588-1.436C512.046,191.786,510.775,192.42,509.791,193.672z"/>
<g id="Head">
	<path style="fill-rule:evenodd;clip-rule:evenodd;fill:#C01823;" d="M310.105,128.049h10.1
		c-4.83-9.473-13.797-20.179-29.614-31.399c0,0-55.342-44.25-155.028-17.707c-1.376,0.285-1.579-0.824-1.579-0.824
		c-0.109-0.578,0.433-1.13,0.433-1.13c41.74-46.374,47.857-68.778,47.857-68.778s-20.575,35.494-63.421,71.71
		c0,0-0.706,0.497-1.318,0.263c0,0-0.585-0.342-0.313-1.238C133.516,34.449,115.363,0,115.363,0s9.304,44.099-13.488,78.235
		c0,0-0.343,0.706-1.244,0.613c0,0-0.946-0.136-0.792-1.348c0,0,4.447-34.255-21.546-52.396
		c20.029,27.224,15.917,50.719,0.05,70.578c0,0-1.155,1.639-2.672,1.004c0,0-1.378-0.575-0.977-2.21c0,0,6.045-14.574-2.514-38.276
		c0,0,1.968,14.63-3.372,29.333c0,0-5.134,13.804-10.729,15.119c0,0-2.832,1.045-3.563-4.24c0,0-3.077-21.015-18.907-38.255
		c0,0,18.089,34.335,5.936,62.252c0,0-8.032,15.271-19.027,28.049c0,0-4.953,5.91-13.246,9.281
		c-10.191,4.143-12.116,9.689-5.115,18.387c3.774,4.689,5.179,9.973,4.845,15.84c-0.241,4.234-0.302,10-0.302,10l2.75-11.867
		c1.781-8.611,3.472-12.191,3.472-12.191c1.646-3.908,4.619-3.465,4.619-3.465c5.07,0.355,3.043,7.572,6.243,6.947
		c1.45-0.227,2.367-3.635,2.367-3.635c1.911-5.521,5.714-4.822,5.714-4.822c1.579,0.082,3.262-1.078,3.234-3.314
		c-0.131-10.641,5.579-5.777,5.579-5.777c3.146,2.545,3.265-2.891,3.265-2.891c0.74-11.4,7.205-7.092,7.205-7.092
		c2.814,1.816,2.888-0.732,2.888-0.732c0.262-5.391,3.917-4.268,3.917-4.268c2.408,0.639,3.028,4.293,3.028,4.293
		c2.496,7.156-2.402,10.77-2.402,10.77c-13.254,10.48-22.317,32.438-22.317,32.438c-6.661,16.883-30.398,31.836-30.398,31.836
		c28.674-15.449,32.39-27.447,34.041-30.178c11.85-21.934,21.267-27.355,21.267-27.355c6.818-4.111,4.772,5.482,4.772,5.482
		c-1.291,4.848-4.819,10.932-4.819,10.932c-0.953,1.582-2.732,2.094-1.708,3.598c6.655,9.77-2.454,11.816-2.454,11.816
		c-3.258,1.076-9.171,1.965-9.171,1.965c22.327,9.117,63.667-13.73,72.214-29.846c-9.291,6.322-18.051,11.211-28.553,14.086
		c0,0-2.63,0.922-1.474-0.76c5.511-7.51,7.192-16.447,7.192-16.447s-8.179,15.143-17.333,20.654c0,0-5.625,3.111-6.029-3.945
		c-0.542-11.465,3.921-26.549,3.921-26.549c0.659-2.283,1.997-4.014,5.024-5.023c2.792-0.93,3.977-0.877,6.71-2.002
		c10.422-4.287,12.853-10.039,12.853-10.039s-8.331,8.795-17.671,7.541c-4.265-0.572-2.394-6.471-2.394-6.471
		c2.154-6.756,10.735-14.184,20.254-14.391c0,0,11.823-0.309,20.569-11.486c0,0-6.347,3.26-9.669,3.66c0,0-6.664,1.83-9.258,0.086
		c-3.53-2.375-3.414-8.449-2.129-12.188c3.415-9.936,18.977-14.686,18.977-14.686c70.078-23.766,151.201-15.774,186.625,30.75
		C309.789,127.618,309.943,127.833,310.105,128.049z M61.853,121.37c0,0-1.181,3.783-1.261,6.701
		c-0.121,4.432,0.86,6.637-4.892,8.27c0,0-5.445,0.553-15.855,10.191c0,0-0.508,0.479-1.295,0.191
		c-0.802-0.291-0.507-1.463-0.507-1.463s3.49-15.295,21.941-25.256c0,0,0.61-0.359,1.265,0.012
		C61.249,120.016,62.066,120.424,61.853,121.37z"/>
</g>
<g id="Tail_Tip">
	<path style="fill-rule:evenodd;clip-rule:evenodd;fill:#C01823;" d="M322.05,132.079h-9.113c5.906,9.02,8.666,18.115,7.641,32.906
		C320.578,164.985,329.972,151.624,322.05,132.079z"/>
</g>
<g>
</g>
<g>
</g>
<g>
</g>
<g>
</g>
<g>
</g>
<g>
</g>
</svg>
