<?xml version="1.0" encoding="utf-8"?>
<!-- Generator: Adobe Illustrator 16.0.0, SVG Export Plug-In . SVG Version: 6.00 Build 0)  -->
<!DOCTYPE svg PUBLIC "-//W3C//DTD SVG 1.1//EN" "http://www.w3.org/Graphics/SVG/1.1/DTD/svg11.dtd">
<svg version="1.1" id="Layer_1" xmlns="http://www.w3.org/2000/svg" xmlns:xlink="http://www.w3.org/1999/xlink" x="0px" y="0px"
	 width="456.716px" height="104.275px" viewBox="0 0 456.716 104.275" style="enable-background:new 0 0 456.716 104.275;"
	 xml:space="preserve">
<g>
	<g>
		<g>
			<path style="fill:#282E44;" d="M124.939,81.664V16.569h20.922c3.396,0,6.606,0.411,9.543,1.235
				c2.982,0.825,5.643,2.06,7.847,3.663c2.249,1.603,3.992,3.617,5.323,5.951c1.286,2.333,1.973,5.081,1.973,8.056
				c0,3.021-0.642,5.677-1.882,7.919c-1.238,2.243-2.937,4.12-4.955,5.586c-2.019,1.464-4.359,2.564-6.974,3.25
				c-2.569,0.688-5.232,1.053-7.847,1.053c-1.101,0-2.295-0.046-3.533-0.091c-1.237-0.046-2.432-0.137-3.578-0.274
				c-1.146-0.092-2.201-0.229-3.165-0.366c-0.55-0.091-1.055-0.137-1.514-0.228V81.62h-12.158v0.044H124.939z M137.051,47.377
				c1.055,0.274,2.156,0.55,3.304,0.824c1.332,0.274,2.706,0.457,4.083,0.457c2.202,0,4.175-0.319,5.828-0.961
				c1.605-0.642,2.982-1.557,4.038-2.656c1.055-1.144,1.882-2.471,2.432-3.937c0.55-1.51,0.827-3.158,0.827-4.898
				c0-2.014-0.368-3.891-1.055-5.538c-0.688-1.649-1.697-3.067-2.891-4.211c-1.192-1.144-2.66-2.06-4.313-2.702
				s-3.441-0.961-5.323-0.961h-6.882v24.581L137.051,47.377L137.051,47.377z"/>
			<path style="fill:#282E44;" d="M197.571,82.716c-3.809,0-7.433-0.688-10.692-2.015c-3.258-1.327-6.102-3.204-8.488-5.492
				c-2.341-2.288-4.223-5.035-5.552-8.147c-1.329-3.113-2.019-6.454-2.019-9.979c0-3.708,0.688-7.232,2.019-10.481
				c1.332-3.25,3.211-6.134,5.552-8.559c2.34-2.425,5.231-4.348,8.488-5.769c3.259-1.418,6.883-2.105,10.692-2.105
				s7.387,0.642,10.644,1.922c3.211,1.281,6.056,3.067,8.442,5.264c2.387,2.243,4.268,4.898,5.597,7.919
				c1.332,3.021,2.019,6.271,2.019,9.706c0,3.8-0.688,7.415-2.019,10.758c-1.331,3.341-3.21,6.317-5.551,8.834
				c-2.386,2.518-5.231,4.531-8.442,5.951C205.004,81.937,201.38,82.716,197.571,82.716z M195.185,35.201
				c-1.514,0-2.982,0.457-4.405,1.327c-1.422,0.87-2.754,2.151-3.854,3.708c-1.146,1.558-2.064,3.433-2.706,5.586
				c-0.688,2.105-1.009,4.394-1.009,6.775c0,3.478,0.368,6.821,1.146,9.888c0.733,3.067,1.836,5.769,3.211,8.01
				c1.377,2.243,3.074,4.029,5.092,5.311c1.973,1.281,4.268,1.922,6.746,1.922c1.791,0,3.441-0.457,4.91-1.372
				c1.514-0.915,2.846-2.196,3.946-3.8c1.146-1.604,2.019-3.478,2.615-5.631c0.642-2.151,0.918-4.439,0.918-6.867
				c0-3.523-0.322-6.821-0.918-9.842c-0.596-3.021-1.56-5.677-2.891-7.874c-1.332-2.197-3.028-3.983-5.138-5.218
				C200.83,35.841,198.258,35.201,195.185,35.201z"/>
			<polygon style="fill:#282E44;" points="230.79,81.664 230.79,9.018 238.36,5.997 241.984,5.997 241.984,81.664 			"/>
			<path style="fill:#282E44;" d="M255.613,104.275c-1.146,0-2.201-0.137-3.259-0.457c-1.055-0.273-1.973-0.732-2.754-1.281
				c-0.781-0.55-1.423-1.234-1.882-2.014c-0.459-0.824-0.733-1.694-0.733-2.656c0-0.778,0.138-1.509,0.459-2.242
				c0.322-0.732,0.733-1.372,1.332-1.969c0.55-0.55,1.239-1.006,2.064-1.326c0.78-0.32,1.696-0.502,2.66-0.502
				c1.146,0,2.019,0.137,2.706,0.41c0.642,0.229,1.237,0.503,1.744,0.824c0.459,0.274,0.964,0.503,1.469,0.733
				c0.459,0.183,1.146,0.274,1.973,0.274c0.873,0,1.605-0.229,2.295-0.733c0.733-0.55,1.423-1.235,2.019-2.014
				c0.597-0.825,1.146-1.74,1.605-2.747c0.505-1.053,0.918-1.969,1.332-2.885l3.165-7.049L246.25,31.173h12.757l18.535,34.514
				l15.095-34.514h6.746l-25.556,58.638c-1.101,2.471-2.341,4.624-3.764,6.407c-1.423,1.832-2.937,3.342-4.496,4.485
				c-1.605,1.189-3.259,2.06-4.91,2.655C258.917,103.956,257.263,104.275,255.613,104.275z"/>
			<path style="fill:#282E44;" d="M321.959,104.275c-8.166,0-14.407-0.961-18.49-2.793c-4.268-1.922-6.424-4.624-6.424-7.919
				c0-1.464,0.368-2.884,1.102-4.211c0.687-1.281,1.604-2.564,2.706-3.755c1.055-1.144,2.295-2.287,3.578-3.34
				c0.964-0.779,1.882-1.51,2.8-2.243c-0.505-0.183-0.964-0.411-1.423-0.642c-0.827-0.411-1.56-0.916-2.156-1.464
				c-0.596-0.548-1.101-1.144-1.514-1.831s-0.596-1.464-0.596-2.289c0-1.098,0.276-2.242,0.872-3.386
				c0.551-1.099,1.331-2.197,2.249-3.204c0.964-1.007,2.064-1.923,3.305-2.793c0.781-0.55,1.651-1.007,2.523-1.418
				c-2.754-1.373-4.955-3.204-6.606-5.446c-1.928-2.61-2.937-5.677-2.937-9.063c0-2.517,0.596-4.898,1.744-7.141
				c1.146-2.243,2.754-4.211,4.773-5.86c1.973-1.649,4.359-2.976,7.064-3.937c2.706-0.961,5.644-1.418,8.719-1.418
				c1.469,0,2.982,0.091,4.451,0.32c1.469,0.183,2.846,0.457,4.083,0.779c1.286,0.319,2.432,0.733,3.396,1.144
				c0.918,0.411,1.651,0.825,2.201,1.327h14.453v5.492h-8.719c0.688,1.099,1.238,2.289,1.697,3.572
				c0.596,1.74,0.918,3.478,0.918,5.172c0,2.656-0.597,5.126-1.791,7.323c-1.191,2.151-2.845,4.074-4.909,5.631
				c-2.064,1.558-4.588,2.747-7.434,3.617c-2.845,0.824-6.01,1.281-9.451,1.281c-1.238,0-2.569-0.091-3.9-0.32
				c-1.146-0.183-2.202-0.411-3.074-0.688c-0.78,0.642-1.423,1.418-1.927,2.243c-0.551,0.87-0.873,1.786-0.873,2.702
				c0,0.457,0.138,1.144,1.286,1.786c0.964,0.551,2.387,0.87,4.223,0.916l18.262,0.778c2.937,0.138,5.46,0.456,7.433,1.053
				c2.019,0.597,3.67,1.372,4.91,2.38c1.237,1.007,2.155,2.242,2.66,3.662c0.505,1.373,0.732,2.93,0.732,4.579
				c0,2.976-0.687,5.723-2.063,8.103c-1.377,2.379-3.396,4.484-6.011,6.179c-2.569,1.649-5.736,2.976-9.406,3.846
				C330.722,103.816,326.547,104.275,321.959,104.275z M311.864,81.25c-0.596,0.457-1.101,0.961-1.56,1.51
				c-0.505,0.642-0.964,1.281-1.331,2.014c-0.368,0.688-0.642,1.418-0.827,2.105c-0.183,0.688-0.276,1.327-0.276,1.969
				c0,0.961,0.322,1.832,1.01,2.747c0.688,0.916,1.79,1.74,3.259,2.471c1.469,0.733,3.35,1.327,5.597,1.786
				c2.25,0.457,4.956,0.688,7.983,0.688c3.211,0,6.102-0.274,8.671-0.779c2.523-0.504,4.679-1.189,6.424-2.014
				c1.696-0.824,3.028-1.74,3.9-2.701c0.827-0.916,1.237-1.832,1.237-2.702c0-1.923-0.918-3.295-2.845-4.165
				c-2.064-0.961-5.001-1.464-8.671-1.464c-2.341,0-4.772-0.046-7.157-0.137c-2.432-0.092-4.679-0.229-6.791-0.411
				c-2.11-0.137-3.946-0.32-5.506-0.502C313.609,81.524,312.553,81.386,311.864,81.25z M322.051,34.148
				c-1.515,0-2.846,0.32-3.946,0.916c-1.101,0.642-2.019,1.51-2.754,2.564c-0.733,1.099-1.285,2.471-1.605,3.983
				c-0.367,1.557-0.55,3.25-0.55,5.035c0,2.151,0.276,4.166,0.78,6.042c0.505,1.832,1.286,3.432,2.201,4.807
				c0.919,1.327,2.064,2.38,3.351,3.113c1.285,0.733,2.706,1.098,4.268,1.098c1.286,0,2.479-0.274,3.67-0.87
				c1.192-0.596,2.249-1.373,3.165-2.425c0.918-1.053,1.651-2.243,2.201-3.617c0.551-1.373,0.827-2.884,0.827-4.439
				c0-2.333-0.322-4.485-0.964-6.499c-0.642-1.968-1.514-3.708-2.569-5.172c-1.055-1.418-2.34-2.564-3.715-3.386
				C325.08,34.56,323.611,34.148,322.051,34.148z"/>
			<path style="fill:#282E44;" d="M380.458,82.716c-3.81,0-7.434-0.688-10.692-2.015c-3.258-1.327-6.102-3.204-8.487-5.492
				c-2.341-2.288-4.223-5.035-5.552-8.147c-1.329-3.113-2.019-6.454-2.019-9.979c0-3.708,0.688-7.232,2.019-10.481
				c1.331-3.25,3.211-6.134,5.552-8.559c2.34-2.425,5.231-4.348,8.487-5.769c3.259-1.418,6.883-2.105,10.692-2.105
				c3.809,0,7.387,0.642,10.644,1.922c3.211,1.281,6.056,3.067,8.442,5.264c2.387,2.243,4.268,4.898,5.597,7.919
				c1.329,3.021,2.02,6.271,2.02,9.706c0,3.8-0.688,7.415-2.02,10.758c-1.331,3.341-3.21,6.317-5.551,8.834
				c-2.387,2.518-5.231,4.531-8.442,5.951C387.891,81.937,384.313,82.716,380.458,82.716z M378.074,35.201
				c-1.514,0-2.981,0.457-4.404,1.327s-2.754,2.151-3.854,3.708c-1.146,1.558-2.064,3.433-2.706,5.586
				c-0.688,2.105-1.01,4.394-1.01,6.775c0,3.478,0.367,6.821,1.146,9.888c0.732,3.067,1.836,5.769,3.211,8.01
				c1.377,2.243,3.073,4.029,5.092,5.311c1.974,1.281,4.269,1.922,6.746,1.922c1.79,0,3.441-0.457,4.909-1.372
				c1.515-0.915,2.846-2.196,3.946-3.8c1.146-1.604,2.019-3.478,2.615-5.631c0.642-2.151,0.918-4.439,0.918-6.867
				c0-3.523-0.322-6.821-0.918-9.842c-0.597-3.021-1.561-5.677-2.892-7.874c-1.331-2.197-3.028-3.983-5.138-5.218
				C383.762,35.841,381.148,35.201,378.074,35.201z"/>
			<path style="fill:#282E44;" d="M445.52,81.664V47.377c0-3.021-0.688-5.355-2.019-6.913c-1.332-1.509-3.028-2.288-5.093-2.288
				c-0.964,0-2.019,0.137-3.119,0.457c-1.101,0.32-2.25,0.779-3.396,1.373c-1.146,0.596-2.341,1.327-3.487,2.197
				c-1.101,0.779-2.156,1.694-3.165,2.656v36.802h-11.148V31.125h11.148v7.874c2.66-2.748,5.414-4.853,8.214-6.316
				c3.305-1.695,6.698-2.564,10.14-2.564c1.836,0,3.532,0.411,5.138,1.235c1.605,0.824,2.982,1.923,4.175,3.341
				c1.146,1.418,2.109,3.067,2.799,4.944c0.688,1.877,1.01,3.891,1.01,6.042v35.932H445.52V81.664L445.52,81.664z"/>
			<g>
				<path style="fill:#E3484A;" d="M15.599,87.751c4.268,4.119,9.269,7.506,14.774,9.934l13.215-31.904L15.599,87.751z"/>
				<path style="fill:#E3484A;" d="M13.948,86.102L34.733,59.14L4.359,71.727C6.746,77.039,10.002,81.891,13.948,86.102z"/>
				<path style="fill:#E3484A;" d="M0,52.09c0.137,6.042,1.331,11.811,3.35,17.166L34.046,56.53L0,52.09z"/>
				<path style="fill:#E3484A;" d="M0,49.757L34.688,45.5L3.396,32.591C1.331,37.946,0.137,43.76,0,49.757z"/>
				<path style="fill:#E3484A;" d="M13.994,15.93c-3.946,4.165-7.205,8.972-9.543,14.281l30.878,12.727L13.994,15.93z"/>
				<path style="fill:#E3484A;" d="M15.647,14.236l27.896,21.788L30.374,4.394C24.914,6.775,19.913,10.162,15.647,14.236z"/>
				<path style="fill:#E3484A;" d="M49.967,0c-6.056,0.137-11.838,1.327-17.161,3.386l13.03,31.265L49.967,0z"/>
				<path style="fill:#E3484A;" d="M52.351,0l4.313,34.24L69.466,3.343C64.144,1.281,58.364,0.137,52.351,0z"/>
				<path style="fill:#E3484A;" d="M86.214,13.825C82.04,9.888,77.221,6.684,71.898,4.35L59.051,35.386L86.214,13.825z"/>
				<path style="fill:#E3484A;" d="M87.865,15.471L66.347,43.21l31.52-13.046C95.39,24.671,91.994,19.728,87.865,15.471z"/>
				<path style="fill:#E3484A;" d="M102.318,49.757c-0.137-6.042-1.331-11.856-3.441-17.211L67.63,45.5L102.318,49.757z"/>
				<path style="fill:#E3484A;" d="M102.318,52.045l-34.596,4.256l31.246,12.864C100.987,63.855,102.181,58.087,102.318,52.045z"/>
				<path style="fill:#E3484A;" d="M87.683,86.744c4.268-4.348,7.755-9.475,10.278-15.105L65.934,58.409L87.683,86.744z"/>
				<path style="fill:#E3484A;" d="M86.075,88.299L59.188,66.786L71.99,97.591C77.221,95.302,81.992,92.144,86.075,88.299z"/>
				<path style="fill:#E3484A;" d="M52.305,102.033c6.102-0.137,11.93-1.327,17.298-3.433L56.343,66.742L52.305,102.033z"/>
				<path style="fill:#E3484A;" d="M49.967,102.033l-4.128-34.834l-13.03,31.447C38.174,100.75,43.957,101.893,49.967,102.033z"/>
			</g>
		</g>
	</g>
</g>
<g>
</g>
<g>
</g>
<g>
</g>
<g>
</g>
<g>
</g>
<g>
</g>
</svg>
