<?xml version="1.0" encoding="utf-8"?>
<!-- Generator: Adobe Illustrator 16.0.0, SVG Export Plug-In . SVG Version: 6.00 Build 0)  -->
<!DOCTYPE svg PUBLIC "-//W3C//DTD SVG 1.1//EN" "http://www.w3.org/Graphics/SVG/1.1/DTD/svg11.dtd">
<svg version="1.1" id="logo" xmlns="http://www.w3.org/2000/svg" xmlns:xlink="http://www.w3.org/1999/xlink" x="0px" y="0px"
	 width="596.104px" height="335.209px" viewBox="2.98 228.495 596.104 335.209"
	 style="enable-background:new 2.98 228.495 596.104 335.209;" xml:space="preserve">
<g>
	<polygon style="fill:#246AB4;" points="65.969,323.872 28.414,323.872 28.414,230.681 2.98,230.681 2.98,345.331 65.969,345.331 	
		"/>
	<polygon style="fill:#246AB4;" points="143.264,323.872 104.12,323.872 104.12,298.438 143.264,298.438 143.264,276.978 
		104.12,276.978 104.12,252.14 143.264,252.14 143.264,230.681 78.686,230.681 78.686,345.331 143.264,345.331 	"/>
	<path style="fill:#246AB4;" d="M167.108,337.979c6.955,6.557,16.691,9.737,28.613,9.737c11.922,0,21.659-3.378,29.01-9.936
		c7.352-6.756,11.127-15.499,11.127-26.229c0-9.14-3.179-16.492-9.339-22.254c-2.583-2.384-5.563-4.57-9.14-6.358
		c-3.577-1.789-8.544-3.974-14.704-6.16s-10.531-3.974-13.114-5.365c-4.173-2.384-6.358-5.365-6.358-9.339
		c0-2.98,1.192-5.166,3.378-6.955c2.384-1.788,5.365-2.782,9.339-2.782c4.173,0,7.551,0.994,9.736,2.98
		c2.186,1.987,3.378,4.769,3.775,8.942l0.199,0.993h25.632l-0.199-1.192c-0.993-10.929-4.967-19.672-11.922-26.03
		s-16.095-9.538-27.222-9.538c-11.326,0-20.466,3.378-27.62,9.736c-6.954,6.557-10.531,15.102-10.531,25.633
		c0,8.743,2.583,15.896,7.749,21.261c4.968,5.365,13.909,10.134,26.229,14.505c4.57,1.589,7.551,2.782,9.141,3.577
		c1.589,0.596,2.98,1.589,4.172,2.384c2.782,1.987,3.974,4.57,3.974,7.75c0,2.98-1.192,5.365-3.775,7.55
		c-2.583,1.987-5.961,3.18-9.736,3.18c-3.974,0-7.551-1.192-10.134-3.18c-2.583-2.186-3.974-4.769-3.974-7.749v-2.384h-24.837v1.192
		C156.577,322.48,160.153,331.422,167.108,337.979z"/>
	<path style="fill:#246AB4;" d="M136.707,433.355c0-38.945-25.235-61.597-69.744-61.597H2.98v187.177h45.502v-60.604h21.46
		C110.478,498.331,136.707,472.698,136.707,433.355z M60.803,460.976h-12.32v-51.861h15.499c16.095,0,26.626,10.531,26.626,25.831
		C90.608,451.438,79.679,460.976,60.803,460.976z"/>
	<path style="fill:#246AB4;" d="M179.427,371.758l-61.796,187.177h48.682l8.147-27.023h66.366l8.146,27.023h50.073L237.448,371.56
		h-58.021V371.758z M185.587,495.152l21.857-69.943l21.857,69.943H185.587z"/>
	<path style="fill:#246AB4;" d="M427.605,505.087l-0.795,0.795c-9.339,9.339-19.87,13.512-34.375,13.512
		c-30.799,0-52.458-22.652-52.458-55.04c0-15.499,4.77-28.613,13.909-38.35c8.941-9.538,21.46-14.704,35.767-14.704
		c13.909,0,26.427,5.166,39.343,16.492l0.795,0.795l30.799-32.389l-0.795-0.794c-11.326-10.333-17.287-14.704-27.023-19.274
		c-13.71-6.16-29.209-9.339-44.906-9.339c-25.434,0-45.9,6.955-62.79,21.261c-21.062,18.082-33.581,47.093-33.581,77.493
		c0,26.03,9.339,51.266,25.632,69.348c17.287,19.273,40.138,28.812,69.347,28.812c28.216,0,48.086-7.551,70.937-27.023l0.994-0.795
		l-1.789-1.987L427.605,505.087z"/>
	<polygon style="fill:#FFC828;" points="571.664,446.47 504.304,513.631 461.385,470.712 436.944,495.152 504.304,562.512 
		595.905,470.91 	"/>
	<path style="fill:#A8A7A5;" d="M570.272,546.615c0-4.371,0-8.742,0.199-11.325h-0.199c-0.993,3.774-4.769,13.908-7.551,21.261
		h-2.781c-1.987-5.961-5.961-17.287-6.955-21.261h-0.198c0.198,2.781,0.198,7.947,0.198,11.922v9.339h-2.98v-23.447h4.57
		c2.583,7.353,5.961,16.691,6.756,19.672l0,0c0.597-2.186,4.372-12.519,7.153-19.672h4.57v23.447h-2.782V546.615z"/>
	<path style="fill:#A8A7A5;" d="M579.611,533.104h8.346c6.558,0,11.127,4.57,11.127,11.525c0,6.954-4.371,11.922-11.127,11.922
		h-8.346V533.104z M582.791,553.968h4.968c5.563,0,8.146-3.975,8.146-9.339c0-4.57-2.385-8.941-8.146-8.941h-4.968V553.968z"/>
</g>
</svg>
