<?xml version="1.0" encoding="utf-8"?>
<!-- Generator: Adobe Illustrator 16.0.0, SVG Export Plug-In . SVG Version: 6.00 Build 0)  -->
<!DOCTYPE svg PUBLIC "-//W3C//DTD SVG 1.1//EN" "http://www.w3.org/Graphics/SVG/1.1/DTD/svg11.dtd">
<svg version="1.1" id="Layer_1" xmlns="http://www.w3.org/2000/svg" xmlns:xlink="http://www.w3.org/1999/xlink" x="0px" y="0px"
	 width="456.715px" height="183.131px" viewBox="0 0 456.715 183.131" style="enable-background:new 0 0 456.715 183.131;"
	 xml:space="preserve">
<g>
	<g>
		<g>
			<path style="fill:none;" d="M222.272,86.167l-24.375,0.007l-3.647,12.062l24.669,0.011
				C230.466,98.245,240.168,86.167,222.272,86.167z"/>
			<path style="fill:none;" d="M158.672,86.174c-6.46-0.002-27.574-0.007-27.668-0.007c-3.176,0-3.151,1.16-6.691,12.134
				l32.301-0.057l3.343-10.313C160.238,87.065,159.59,86.174,158.672,86.174z"/>
			<path style="fill:none;" d="M295.004,86.167l-24.135,0.05l-3.682,12.084l24.464-0.057
				C303.197,98.245,312.898,86.167,295.004,86.167z"/>
			<path style="fill:#010101;" d="M454.264,75.718H413.04c-0.078,0.002-9.845-0.327-13.297,1.274
				c-12.346,5.728-14.182,18.728-9.062,23.806c3.933,3.902,8.41,4.348,11.532,4.348h23.966c14.533,0,5.762,10.124-0.768,10.124
				h-43.388c-0.727,0-1.368,0.372-1.585,1.062l-2.233,7.018c-0.333,1.064,0.464,2.227,1.585,2.227l47.962-0.007
				c8.5,0,16.049-6.796,18.39-13.446c1.537-4.363,1.978-16.854-21.79-16.745c-4.206,0.021-16.928,0-16.928,0
				c-11.848,0-5.953-10.137,1.345-10.137c7.202,0,37.441-0.002,44.092,0c1.077,0,2.027-0.765,2.341-1.791l1.404-4.583
				C457.088,77.3,455.91,75.718,454.264,75.718z"/>
			<path style="fill:#010101;" d="M100.801,116.13c-5.88,0.012-17.454,0.06-23.943,0.06c-13.713,0-21.08-2.363-21.08-13.729
				c0-4.755,5.22-16.369,21.039-16.3l34.009,0.034c0.635,0,1.194-0.411,1.382-1.016l2.315-7.559
				c0.283-0.923-0.411-1.852-1.379-1.852l-35.466-0.005c-18.668,0-34.713,12.795-34.713,28.508
				c0,15.965,12.715,21.285,26.003,21.365l29.826-0.046c0.635,0,1.194-0.413,1.377-1.018l2.01-6.591
				C102.461,117.058,101.772,116.128,100.801,116.13z"/>
			<path style="fill:#010101;" d="M316.545,116.203l-10.604-0.016c-23.843,0-26.344-6.042-26.344-6.042s13.208,0,16.638,0
				c22.215,0.006,32.683-34.396,3.652-34.396h-38.154c-1.501,0-2.822,0.978-3.257,2.407l-11.29,37.258l-0.232,0.772H233.21
				c-23.843,0-26.343-6.042-26.343-6.042s13.208,0,16.638,0c22.215,0.006,32.683-34.396,3.651-34.396h-38.154
				c-1.5,0-2.823,0.978-3.256,2.407l-11.523,38.031h-5.62c-4.503,0-3.64-3.291-2.822-6.001c0.086-0.288,6.725-22.359,9.723-31.911
				c0.393-1.254-0.55-2.523-1.87-2.523h-47.396c-5.942,0-7.867,1.16-10.852,10.417c-1.56,4.837-10.938,36.617-11.934,39.451H115.9
				c0.683-2.103,2.576-8.394,4.771-15.411h32.271c0,0-0.788,2.646-1.555,5.026c-1.338,4.146,0.662,10.388,8.637,10.388h23.482
				c1.459,0,2.747-0.952,3.167-2.343l3.976-13.133c3.631,5.271,15.076,15.473,43.504,15.473h12.479h0.558h9.326
				c1.457,0,2.742-0.947,3.165-2.336l4.003-13.137c3.631,5.271,14.771,15.473,43.198,15.473l4.652,0.017
				c1.555,0,2.925-1.012,3.375-2.493l1.973-6.488C316.949,116.429,316.78,116.203,316.545,116.203z M159.958,87.933l-3.343,10.313
				l-32.301,0.057c3.54-10.975,3.515-12.134,6.691-12.134c0.094,0,21.21,0.004,27.668,0.007
				C159.59,86.174,160.238,87.065,159.958,87.933z M197.897,86.174l24.375-0.007c17.894,0,8.194,12.078-3.353,12.078l-24.669-0.012
				L197.897,86.174z M270.869,86.218l24.135-0.05c17.895,0,8.193,12.078-3.353,12.078l-24.464,0.057L270.869,86.218z"/>
			<path style="fill:#010101;" d="M377.305,75.715c-0.684,2.103-10.094,32.612-10.669,34.327c-1.515,4.51-2.136,5.125-4.438,5.125
				c-0.094,0-21.21-0.005-27.668-0.008c-0.691,0-1.229-0.504-1.333-1.125c-0.034-0.203-0.023-0.42,0.048-0.635l2.505-7.726
				l9.171-29.981c-3.718,0-4.54,0.021-11.74,0.021h-1.034l-6.328,20.751c-2.037,6.744-5.542,18.321-7.695,25.236l-0.471,1.539
				c-0.253,1.189,0.658,2.343,1.911,2.343h10.107h32.153h5.14c5.942,0,7.867-1.16,10.852-10.418
				c1.561-4.837,10.938-36.617,11.935-39.451h-12.445V75.715z"/>
			<path style="fill:#C52B32;" d="M14.091,125.345C1.943,80.271,28.818,33.933,74.118,21.846c3.135-0.836,9.427-1.836,9.427-1.836
				c9.614-1.348,19.652-0.836,29.623,1.82c15.782,4.207,29.013,13.156,38.57,24.889h23.438l0.011-0.007
				C163.173,26.011,143.221,9.873,118.182,3.2c-12.468-3.323-25.023-3.98-37.056-2.332C44.833,5.842,13.292,31.839,3.219,69.262
				c-6.707,24.914-2.628,50.175,9.388,70.876c11.729,20.207,31.034,36.042,55.24,42.993
				C42.371,174.156,21.618,153.274,14.091,125.345z"/>
		</g>
	</g>
</g>
<g>
</g>
<g>
</g>
<g>
</g>
<g>
</g>
<g>
</g>
<g>
</g>
</svg>
