<?xml version="1.0" encoding="utf-8"?>
<!-- Generator: Adobe Illustrator 16.0.0, SVG Export Plug-In . SVG Version: 6.00 Build 0)  -->
<!DOCTYPE svg PUBLIC "-//W3C//DTD SVG 1.1//EN" "http://www.w3.org/Graphics/SVG/1.1/DTD/svg11.dtd">
<svg version="1.1" id="Layer_1" xmlns="http://www.w3.org/2000/svg" xmlns:xlink="http://www.w3.org/1999/xlink" x="0px" y="0px"
	 width="310.27px" height="80px" viewBox="-0.27 0 310.27 80" style="enable-background:new -0.27 0 310.27 80;"
	 xml:space="preserve">
<g>
	<defs>
		<rect id="SVGID_1_" width="310" height="80"/>
	</defs>
	<clipPath id="SVGID_2_">
		<use xlink:href="#SVGID_1_"  style="overflow:visible;"/>
	</clipPath>
	<g style="clip-path:url(#SVGID_2_);">
		<path d="M150.981,57.797l-3.772,21.301c2.359,0.608,4.781,0.916,7.216,0.902c2.694-0.035,5.373-0.385,7.989-1.035l-3.904-21.168
			h-7.522H150.981z"/>
		<path d="M147.202,1.035l3.904,21.167h7.523l3.771-21.3c-2.346-0.608-4.773-0.909-7.209-0.902
			C152.498,0.035,149.819,0.385,147.202,1.035z"/>
		<path d="M121.919,62.244c1.239,2.105,2.735,4.042,4.468,5.77c1.928,1.889,4.071,3.545,6.382,4.943l10.369-15.16h-14.865
			l-6.347,4.447H121.919z"/>
		<path d="M166.354,57.797l10.592,15.252c2.095-1.245,4.022-2.748,5.742-4.49c1.879-1.937,3.527-4.09,4.92-6.412l-6.306-4.356
			h-14.942L166.354,57.797z"/>
		<path d="M126.93,11.44c-1.879,1.937-3.528,4.091-4.92,6.413l6.305,4.357h14.941L132.664,6.958
			c-2.094,1.245-4.022,2.748-5.741,4.489L126.93,11.44z"/>
		<path d="M187.697,17.755c-1.239-2.105-2.735-4.042-4.469-5.77c-1.927-1.888-4.07-3.545-6.381-4.944l-10.369,15.161h14.864
			l6.347-4.447H187.697z"/>
		<path d="M17.359,29.706l0.208,4.804h-0.571c-0.048-0.629-0.202-1.238-0.452-1.818c-0.278-0.545-0.71-1-1.246-1.293
			c-0.64-0.301-1.336-0.448-2.039-0.413h-2.874v15.678c0,1.266,0.139,2.056,0.411,2.363c0.48,0.462,1.127,0.7,1.788,0.644h0.717
			v0.566H4.575v-0.566h0.731c0.709,0.07,1.413-0.224,1.858-0.79c0.223-0.329,0.334-1.07,0.334-2.217V30.986H5.034
			c-0.689-0.035-1.371,0.042-2.039,0.21c-0.55,0.216-1.023,0.601-1.343,1.104c-0.411,0.665-0.64,1.427-0.668,2.21H0.42l0.216-4.804
			H17.359z"/>
		<path d="M24.693,39.224h9.513V33.35c0.042-0.692-0.028-1.392-0.195-2.07c-0.132-0.279-0.355-0.51-0.633-0.65
			c-0.417-0.238-0.891-0.364-1.371-0.364h-0.724v-0.566h8.734v0.566h-0.724c-0.48,0-0.954,0.119-1.371,0.35
			c-0.306,0.147-0.543,0.406-0.654,0.727c-0.153,0.658-0.208,1.329-0.174,2V46.58c-0.042,0.692,0.028,1.392,0.195,2.063
			c0.125,0.28,0.348,0.51,0.619,0.65c0.425,0.238,0.898,0.364,1.385,0.364h0.724v0.566h-8.734v-0.566h0.724
			c0.689,0.063,1.371-0.217,1.823-0.741c0.25-0.322,0.375-1.098,0.375-2.336v-6.23h-9.513v6.23
			c-0.042,0.692,0.028,1.392,0.195,2.063c0.125,0.287,0.348,0.518,0.626,0.65c0.417,0.238,0.884,0.364,1.364,0.364h0.73v0.566
			h-8.734v-0.566H19.6c0.696,0.063,1.378-0.217,1.837-0.741c0.237-0.322,0.362-1.098,0.362-2.336V33.342
			c0.042-0.692-0.028-1.392-0.195-2.07c-0.125-0.28-0.348-0.51-0.619-0.65c-0.425-0.238-0.905-0.364-1.385-0.364h-0.724v-0.566
			h8.734v0.566h-0.73c-0.474,0-0.947,0.119-1.364,0.35c-0.299,0.154-0.529,0.413-0.647,0.727c-0.16,0.657-0.216,1.329-0.181,2v5.874
			L24.693,39.224z"/>
		<path d="M47.081,30.839v8.07h4.475c1.162,0,1.941-0.175,2.332-0.524c0.522-0.455,0.814-1.259,0.87-2.419h0.564v7.112h-0.564
			c-0.063-0.65-0.202-1.294-0.424-1.916c-0.195-0.364-0.508-0.658-0.891-0.825c-0.605-0.238-1.252-0.336-1.893-0.301h-4.475v6.762
			c-0.035,0.552,0,1.112,0.118,1.657c0.083,0.203,0.229,0.371,0.424,0.469c0.362,0.146,0.751,0.209,1.142,0.175h3.452
			c0.842,0.035,1.691-0.049,2.512-0.238c0.571-0.196,1.085-0.518,1.503-0.944c0.772-0.839,1.413-1.783,1.907-2.811h0.633
			l-1.761,5.133H41.263v-0.566h0.724c0.48,0,0.947-0.119,1.371-0.35c0.306-0.147,0.543-0.406,0.661-0.734
			c0.146-0.657,0.209-1.329,0.174-1.993V33.286c0-1.3-0.132-2.098-0.39-2.405c-0.487-0.448-1.148-0.671-1.809-0.602H41.27v-0.566
			h15.742l0.216,4.497h-0.599c-0.111-0.769-0.341-1.518-0.696-2.217c-0.271-0.419-0.668-0.741-1.134-0.923
			c-0.689-0.188-1.406-0.266-2.123-0.23h-5.588H47.081z"/>
		<path d="M73.54,48.762c1.134,0.266,2.303,0.405,3.465,0.405c1.83,0,3.222-0.413,4.183-1.238c0.918-0.748,1.454-1.874,1.44-3.063
			c0-0.818-0.237-1.615-0.675-2.308c-0.508-0.79-1.252-1.405-2.129-1.748c-1.148-0.455-2.38-0.671-3.619-0.636
			c-0.626,0-1.155,0.007-1.601,0.028c-0.362,0.014-0.717,0.049-1.072,0.105v8.447L73.54,48.762z M73.54,38.909
			c0.424,0.077,0.849,0.133,1.273,0.161c0.473,0.035,1.002,0.049,1.573,0.049c1.12,0.056,2.248-0.105,3.305-0.476
			c0.71-0.287,1.302-0.797,1.705-1.455c0.397-0.643,0.599-1.384,0.592-2.14c0-1.189-0.536-2.314-1.469-3.056
			c-0.974-0.839-2.4-1.266-4.273-1.266c-0.918-0.014-1.83,0.098-2.721,0.329v7.846L73.54,38.909z M81.438,39.734
			c1.169,0.188,2.269,0.692,3.18,1.454c0.954,0.874,1.482,2.119,1.461,3.413c-0.014,1.056-0.348,2.084-0.96,2.937
			c-0.647,0.944-1.573,1.657-2.637,2.049c-1.121,0.433-2.826,0.643-5.122,0.643h-9.625v-0.566h0.759
			c0.709,0.063,1.398-0.245,1.823-0.818c0.229-0.356,0.341-1.104,0.341-2.258V33.35c0-1.273-0.146-2.077-0.432-2.413
			c-0.452-0.469-1.085-0.713-1.732-0.671h-0.759v-0.566h8.81c1.33-0.028,2.651,0.091,3.953,0.364
			c1.322,0.258,2.526,0.93,3.444,1.923c0.773,0.874,1.197,2.007,1.19,3.175c0.007,1-0.32,1.972-0.933,2.755
			c-0.717,0.874-1.677,1.503-2.756,1.804"/>
		<path d="M94.125,39.685c0.188,0,0.355,0,0.494,0s0.25,0,0.341,0c1.928,0,3.375-0.427,4.356-1.272
			c0.954-0.797,1.496-1.986,1.469-3.238c0.125-2.259-1.601-4.196-3.849-4.322c-0.153-0.007-0.313-0.007-0.466,0
			c-0.786,0.028-1.573,0.133-2.338,0.314v8.497L94.125,39.685z M108.648,50.23h-5.476l-6.945-9.594
			c-0.508,0.021-0.919,0.028-1.232,0.028c-0.132,0-0.271,0-0.417,0c-0.146,0-0.299-0.014-0.459-0.021v5.944
			c0,1.294,0.139,2.098,0.425,2.413c0.438,0.469,1.071,0.713,1.712,0.665h0.793v0.566h-8.733v-0.566h0.765
			c0.724,0.063,1.42-0.259,1.844-0.853c0.209-0.315,0.313-1.056,0.313-2.231V33.343c0-1.294-0.139-2.098-0.425-2.413
			c-0.452-0.468-1.085-0.713-1.74-0.671h-0.765v-0.567h7.432c1.614-0.063,3.222,0.098,4.795,0.476
			c1.023,0.314,1.935,0.93,2.617,1.755c0.716,0.853,1.099,1.937,1.078,3.049c0.021,1.21-0.417,2.385-1.224,3.287
			c-0.815,0.93-2.081,1.587-3.793,1.965l4.238,5.881c0.661,1.042,1.503,1.951,2.484,2.699c0.828,0.49,1.754,0.776,2.714,0.854v0.566
			V50.23z"/>
		<path d="M119.386,30.308c-1.705-0.056-3.333,0.706-4.384,2.049c-1.371,1.699-2.06,4.189-2.06,7.461c0,3.356,0.71,5.937,2.13,7.748
			c1.03,1.343,2.637,2.112,4.328,2.063c1.844,0.035,3.598-0.804,4.739-2.259c1.246-1.503,1.872-3.881,1.872-7.125
			c0-3.518-0.689-6.147-2.059-7.874C122.845,30.993,121.147,30.23,119.386,30.308z M119.672,29.245
			c2.616-0.014,5.115,1.091,6.882,3.035c1.942,2.028,2.993,4.755,2.909,7.574c0.091,2.874-0.967,5.671-2.93,7.755
			c-3.709,3.951-9.909,4.133-13.841,0.406c-0.112-0.105-0.223-0.217-0.334-0.329c-1.907-2-2.868-4.602-2.861-7.783
			c-0.104-3.014,1.107-5.923,3.306-7.972c1.851-1.762,4.322-2.72,6.876-2.678"/>
		<path d="M139.916,38.804l7.55,7.511c0.905,1.021,1.963,1.888,3.132,2.58c0.8,0.434,1.691,0.7,2.596,0.77v0.566h-9.708v-0.566
			c0.438,0.035,0.877-0.07,1.259-0.294c0.23-0.146,0.369-0.392,0.383-0.657c0-0.224-0.049-0.447-0.139-0.65
			c-0.272-0.398-0.585-0.755-0.947-1.077l-7.049-7.014v6.615c-0.042,0.692,0.028,1.392,0.195,2.063
			c0.132,0.287,0.355,0.518,0.64,0.65c0.424,0.238,0.898,0.364,1.385,0.364h0.703v0.566h-8.734v-0.566h0.724
			c0.696,0.063,1.378-0.217,1.837-0.741c0.237-0.322,0.362-1.105,0.362-2.336V33.35c0.042-0.7-0.028-1.399-0.202-2.077
			c-0.132-0.272-0.348-0.497-0.619-0.636c-0.425-0.238-0.905-0.364-1.385-0.364h-0.724v-0.566h8.734v0.566h-0.703
			c-0.48,0-0.96,0.126-1.385,0.35c-0.306,0.147-0.536,0.413-0.654,0.728c-0.16,0.657-0.216,1.329-0.181,2v6.251
			c0.202-0.189,0.891-0.825,2.067-1.916c2.985-2.741,4.788-4.566,5.407-5.482c0.237-0.308,0.376-0.671,0.404-1.056
			c0-0.238-0.126-0.468-0.314-0.608c-0.32-0.203-0.695-0.301-1.071-0.266h-0.466v-0.566h7.522v0.566c-0.41,0-0.814,0.07-1.204,0.182
			c-0.466,0.161-0.911,0.378-1.322,0.65c-0.689,0.455-1.336,0.972-1.928,1.545c-0.222,0.203-1.238,1.224-3.055,3.07l-3.117,3.084
			H139.916z"/>
		<path d="M159.38,30.839v8.07h4.476c1.162,0,1.941-0.175,2.33-0.524c0.522-0.455,0.815-1.266,0.871-2.419h0.563v7.112h-0.563
			c-0.056-0.65-0.201-1.294-0.418-1.916c-0.201-0.364-0.508-0.658-0.891-0.825c-0.605-0.238-1.246-0.336-1.893-0.301h-4.476v6.762
			c-0.034,0.552,0,1.112,0.119,1.657c0.083,0.203,0.229,0.364,0.417,0.469c0.361,0.146,0.752,0.209,1.143,0.175h3.45
			c0.843,0.035,1.691-0.049,2.513-0.238c0.57-0.189,1.086-0.518,1.504-0.944c0.771-0.839,1.412-1.783,1.906-2.811h0.633l-1.76,5.133
			h-15.742v-0.566h0.723c0.481,0,0.954-0.119,1.371-0.35c0.307-0.147,0.543-0.413,0.653-0.734c0.154-0.65,0.209-1.329,0.174-1.993
			V33.286c0-1.3-0.131-2.098-0.396-2.405c-0.487-0.448-1.148-0.671-1.81-0.602h-0.723v-0.566h15.749l0.215,4.497h-0.599
			c-0.11-0.769-0.348-1.518-0.702-2.217c-0.271-0.419-0.669-0.741-1.135-0.923c-0.689-0.188-1.406-0.266-2.115-0.23h-5.596H159.38z"
			/>
		<path d="M178.121,39.685c0.188,0,0.355,0,0.495,0c0.139,0,0.25,0,0.341,0c1.92,0,3.382-0.419,4.355-1.272
			c0.953-0.797,1.496-1.986,1.469-3.238c0.126-2.266-1.6-4.196-3.855-4.322c-0.152-0.007-0.313-0.007-0.466,0
			c-0.787,0.028-1.573,0.133-2.339,0.314v8.497V39.685z M192.645,50.23h-5.477l-6.945-9.594c-0.508,0.021-0.912,0.028-1.231,0.028
			c-0.132,0-0.265,0-0.417,0c-0.153,0-0.307-0.014-0.467-0.021v5.944c0,1.294,0.14,2.098,0.418,2.413
			c0.438,0.469,1.072,0.713,1.711,0.665h0.793v0.566h-8.732v-0.566h0.766c0.724,0.063,1.42-0.259,1.844-0.853
			c0.209-0.315,0.313-1.056,0.313-2.231V33.343c0-1.294-0.139-2.098-0.417-2.413c-0.452-0.468-1.093-0.713-1.739-0.671h-0.766
			v-0.567h7.432c1.608-0.063,3.223,0.098,4.789,0.476c1.022,0.314,1.934,0.923,2.615,1.755c0.717,0.853,1.1,1.937,1.079,3.049
			c0.021,1.21-0.417,2.385-1.226,3.287c-0.813,0.93-2.079,1.587-3.791,1.965l4.238,5.881c0.66,1.042,1.502,1.951,2.483,2.699
			c0.828,0.49,1.754,0.776,2.714,0.854v0.566L192.645,50.23z"/>
		<path d="M206.382,30.839v8.035h3.696c0.675,0.056,1.35-0.14,1.886-0.56c0.396-0.378,0.661-1.133,0.786-2.273h0.57v6.972h-0.57
			c0.027-0.602-0.077-1.196-0.307-1.748c-0.18-0.357-0.465-0.65-0.82-0.839c-0.488-0.217-1.016-0.308-1.553-0.28h-3.695v6.44
			c-0.041,0.692,0.027,1.392,0.195,2.063c0.125,0.287,0.348,0.518,0.627,0.657c0.416,0.238,0.89,0.364,1.371,0.364h0.729v0.566
			h-8.733v-0.566h0.724c0.696,0.063,1.378-0.21,1.838-0.741c0.243-0.322,0.36-1.105,0.36-2.336V33.356
			c0.035-0.692-0.026-1.392-0.193-2.063c-0.133-0.28-0.348-0.511-0.62-0.65c-0.424-0.238-0.903-0.364-1.392-0.364h-0.723v-0.566
			h15.176l0.209,4.497h-0.528c-0.174-0.749-0.479-1.461-0.903-2.098c-0.335-0.434-0.773-0.769-1.281-0.965
			c-0.766-0.238-1.56-0.343-2.359-0.301h-4.503L206.382,30.839z"/>
		<path d="M228.262,30.308c-1.705-0.056-3.326,0.706-4.384,2.049c-1.378,1.699-2.06,4.189-2.06,7.461
			c0,3.356,0.709,5.937,2.129,7.748c1.029,1.343,2.638,2.112,4.328,2.063c1.845,0.028,3.599-0.804,4.74-2.259
			c1.246-1.503,1.864-3.881,1.864-7.125c0-3.518-0.688-6.147-2.06-7.874c-1.106-1.378-2.805-2.14-4.565-2.063 M228.54,29.245
			c2.617-0.014,5.122,1.091,6.883,3.035c1.94,2.028,2.992,4.755,2.909,7.574c0.09,2.874-0.961,5.664-2.93,7.755
			c-3.709,3.951-9.91,4.133-13.842,0.406c-0.111-0.105-0.223-0.217-0.334-0.329c-1.908-2-2.86-4.602-2.867-7.783
			c-0.104-3.014,1.106-5.923,3.306-7.972c1.851-1.762,4.321-2.72,6.875-2.678"/>
		<path d="M245.861,39.685c0.188,0,0.354,0,0.494,0s0.25,0,0.34,0c1.929,0,3.384-0.427,4.357-1.272
			c0.953-0.797,1.496-1.986,1.469-3.238c0.125-2.266-1.601-4.196-3.855-4.322c-0.152-0.007-0.313-0.007-0.466,0
			c-0.787,0.028-1.573,0.133-2.339,0.314v8.497V39.685z M260.385,50.23h-5.47l-6.938-9.594c-0.508,0.021-0.918,0.028-1.231,0.028
			c-0.132,0-0.271,0-0.417,0s-0.307-0.014-0.467-0.021v5.944c0,1.294,0.14,2.098,0.425,2.413c0.438,0.469,1.065,0.713,1.705,0.665
			h0.793v0.566h-8.733v-0.566h0.766c0.724,0.063,1.42-0.259,1.844-0.853c0.209-0.315,0.313-1.056,0.313-2.231V33.343
			c0-1.294-0.139-2.098-0.416-2.413c-0.453-0.468-1.086-0.713-1.74-0.671h-0.766v-0.567h7.432c1.607-0.063,3.223,0.098,4.789,0.476
			c1.022,0.314,1.934,0.923,2.623,1.755c0.717,0.853,1.1,1.937,1.071,3.049c0.021,1.21-0.417,2.385-1.225,3.287
			c-0.814,0.93-2.081,1.587-3.792,1.965l4.238,5.881c0.66,1.042,1.502,1.951,2.483,2.699c0.828,0.49,1.754,0.776,2.707,0.854v0.566
			L260.385,50.23z"/>
		<path d="M274.867,30.272v-0.566h7.182v0.566h-0.766c-0.751-0.028-1.461,0.364-1.844,1.014c-0.209,0.314-0.32,1.042-0.32,2.175
			v8.314c0.063,1.615-0.146,3.238-0.612,4.79c-0.467,1.21-1.302,2.231-2.394,2.917c-1.19,0.811-2.813,1.216-4.858,1.216
			c-2.228,0-3.925-0.384-5.08-1.161c-1.134-0.748-1.997-1.846-2.457-3.126c-0.319-0.895-0.479-2.58-0.479-5.049v-8.007
			c0-1.266-0.174-2.091-0.516-2.49c-0.438-0.434-1.043-0.65-1.656-0.594h-0.752v-0.566h8.734v0.566h-0.771
			c-0.696-0.063-1.371,0.238-1.782,0.804c-0.25,0.364-0.369,1.126-0.369,2.273v8.923c0.007,0.916,0.084,1.832,0.216,2.734
			c0.084,0.846,0.355,1.671,0.793,2.398c0.426,0.608,0.989,1.098,1.657,1.419c0.828,0.399,1.731,0.587,2.651,0.56
			c1.252,0.021,2.49-0.28,3.591-0.874c0.952-0.476,1.719-1.273,2.171-2.245c0.391-0.909,0.578-2.455,0.578-4.629V33.35
			c0-1.287-0.139-2.084-0.418-2.413c-0.452-0.469-1.092-0.713-1.74-0.671h-0.766L274.867,30.272z"/>
		<path d="M295.035,50.23l-7.893-17.272v13.699c0,1.266,0.14,2.056,0.412,2.363c0.473,0.469,1.119,0.699,1.78,0.644h0.731v0.566
			h-7.189v-0.566h0.73c0.711,0.07,1.412-0.224,1.858-0.79c0.224-0.329,0.334-1.063,0.334-2.217V33.279
			c0.042-0.671-0.063-1.342-0.306-1.972c-0.174-0.322-0.453-0.588-0.787-0.741c-0.584-0.238-1.211-0.336-1.837-0.294v-0.566h5.915
			l7.335,15.979l7.266-15.979h5.797v0.566h-0.717c-0.717-0.077-1.427,0.224-1.872,0.79c-0.223,0.322-0.334,1.063-0.334,2.217v13.378
			c0,1.266,0.146,2.056,0.432,2.363c0.473,0.469,1.121,0.699,1.781,0.644h0.718v0.566h-8.734v-0.566h0.731
			c0.709,0.077,1.412-0.224,1.857-0.79c0.223-0.329,0.334-1.063,0.334-2.217V32.958l-7.85,17.272H295.035z"/>
		<path d="M211.232,79.58v-0.427c0.355,0.015,0.703-0.056,1.023-0.196c0.334-0.209,0.516-0.594,0.467-0.985v-8.175
			c0.049-0.398-0.14-0.783-0.488-0.986c-0.319-0.133-0.66-0.195-1.008-0.195v-0.427h9.672v3.398h-0.41
			c-0.215-1.084-0.577-1.832-1.086-2.23c-0.514-0.399-1.44-0.602-2.791-0.602c-0.334-0.035-0.674,0.021-0.98,0.161
			c-0.16,0.168-0.236,0.405-0.209,0.636v3.902c0.961,0.015,1.607-0.161,1.941-0.524c0.432-0.573,0.703-1.259,0.779-1.973h0.426
			v5.699h-0.426c-0.035-0.733-0.291-1.439-0.73-2.027c-0.368-0.392-1.029-0.588-1.99-0.588v4.084
			c-0.035,0.273,0.07,0.546,0.279,0.728c0.354,0.168,0.736,0.231,1.127,0.196c0.912,0.041,1.822-0.176,2.624-0.63
			c0.813-0.587,1.44-1.405,1.802-2.35h0.467l-0.683,3.511h-9.812H211.232z"/>
		<path d="M226.027,75.643h0.48c0.153,1.028,0.605,1.979,1.294,2.748c0.544,0.553,1.281,0.861,2.046,0.861
			c1.002,0.133,1.922-0.574,2.053-1.581c0.015-0.084,0.015-0.168,0.015-0.252c0.015-0.462-0.16-0.909-0.494-1.237
			c-0.403-0.329-0.849-0.602-1.321-0.818l-1.072-0.545c-0.842-0.379-1.607-0.924-2.248-1.602c-0.445-0.553-0.676-1.245-0.654-1.951
			c0.007-0.847,0.313-1.664,0.863-2.309c0.668-0.755,1.648-1.153,2.658-1.069c0.599,0,1.19,0.091,1.761,0.28
			c0.313,0.118,0.64,0.209,0.968,0.279c0.146,0.014,0.292-0.042,0.382-0.161c0.077-0.133,0.14-0.272,0.167-0.427h0.501v3.672h-0.466
			c-0.202-0.818-0.598-1.574-1.154-2.203c-0.502-0.594-1.24-0.93-2.019-0.923c-0.479-0.028-0.961,0.14-1.315,0.468
			c-0.634,0.645-0.647,1.672-0.027,2.329c0.619,0.469,1.293,0.867,1.996,1.188l1.24,0.63c0.486,0.237,0.932,0.553,1.321,0.931
			c0.604,0.615,0.938,1.454,0.918,2.321c-0.021,0.896-0.368,1.755-0.987,2.405c-0.662,0.756-1.713,1.133-3.166,1.133
			c-0.342,0-0.683-0.035-1.01-0.098c-0.348-0.063-0.682-0.161-1.009-0.294l-0.32-0.118c-0.069-0.021-0.147-0.043-0.216-0.057
			c-0.057-0.014-0.118-0.021-0.182-0.021c-0.139-0.014-0.271,0.043-0.354,0.154c-0.077,0.133-0.132,0.279-0.167,0.434h-0.48v-4.175
			V75.643z"/>
		<path d="M238.492,68.182h10.104l0.014,3.398h-0.479c-0.159-1.217-0.612-2.042-1.364-2.469c-0.592-0.272-1.238-0.405-1.886-0.392
			v8.888c-0.056,0.441,0.063,0.882,0.327,1.238c0.404,0.252,0.877,0.363,1.35,0.308v0.427h-5.984v-0.427
			c0.46,0.056,0.919-0.056,1.309-0.308c0.264-0.356,0.375-0.797,0.327-1.23v-8.889c-0.647-0.014-1.295,0.119-1.886,0.393
			c-0.801,0.439-1.26,1.266-1.364,2.468h-0.487l0.021-3.398V68.182z"/>
		<path d="M253.029,77.385c0.557-0.561,1.455-0.566,2.012,0c0.557,0.559,0.563,1.461,0,2.021c-0.557,0.56-1.455,0.566-2.012,0
			c-0.271-0.266-0.418-0.637-0.418-1.015c0-0.377,0.146-0.74,0.41-1.006"/>
		<path d="M267.344,79.174c0.85,0,1.399-0.118,1.643-0.35c0.285-0.377,0.418-0.859,0.361-1.328v-6.504
			c0.021-0.301-0.027-0.607-0.146-0.888c-0.111-0.182-0.32-0.286-0.529-0.266c-0.216,0.014-0.424,0.063-0.633,0.14
			c-0.181,0.057-0.425,0.146-0.738,0.266v-0.426l4.238-1.84h0.3v9.615c-0.049,0.441,0.055,0.881,0.292,1.252
			c0.195,0.217,0.696,0.328,1.511,0.328v0.406h-6.299V79.174z"/>
		<path d="M282.73,74.489c0.104-0.021,0.209-0.07,0.293-0.14c0.056-0.196,0.09-0.393,0.097-0.595
			c0.042-0.427,0.063-0.86,0.056-1.287c0-0.552-0.014-1.042-0.035-1.476c-0.014-0.377-0.055-0.755-0.125-1.133
			c-0.049-0.308-0.139-0.602-0.277-0.881c-0.153-0.322-0.475-0.531-0.828-0.524c-0.383-0.015-0.725,0.224-0.855,0.581
			c-0.203,0.545-0.294,1.125-0.266,1.705c-0.042,0.966,0.077,1.931,0.348,2.861c0.118,0.552,0.6,0.95,1.162,0.957
			c0.146,0,0.293-0.027,0.432-0.076 M278.389,79.385c0.807-0.141,1.572-0.441,2.269-0.882c1.134-0.804,1.913-2.014,2.192-3.385
			l-0.084-0.056c-0.229,0.076-0.41,0.133-0.55,0.16c-0.278,0.063-0.563,0.092-0.849,0.092c-0.828,0.021-1.629-0.309-2.199-0.916
			c-0.613-0.679-0.926-1.574-0.877-2.482c-0.057-1.07,0.341-2.112,1.085-2.881c0.675-0.686,1.595-1.07,2.554-1.063
			c1.086-0.021,2.116,0.462,2.791,1.314c0.766,0.986,1.155,2.217,1.094,3.469c0.055,2.042-0.871,3.985-2.492,5.217
			c-1.412,1.112-3.139,1.755-4.934,1.839V79.385z"/>
		<path d="M294.395,74.489c0.104-0.021,0.209-0.07,0.293-0.14c0.055-0.196,0.09-0.393,0.097-0.595
			c0.042-0.427,0.063-0.86,0.056-1.287c0-0.552-0.014-1.042-0.035-1.476c-0.014-0.377-0.056-0.755-0.125-1.133
			c-0.049-0.308-0.139-0.602-0.279-0.881c-0.152-0.322-0.473-0.531-0.827-0.524c-0.384-0.015-0.724,0.224-0.856,0.581
			c-0.201,0.545-0.292,1.125-0.264,1.705c-0.042,0.966,0.076,1.931,0.348,2.861c0.118,0.552,0.598,0.95,1.162,0.957
			c0.146,0,0.292-0.027,0.432-0.076 M290.052,79.385c0.808-0.141,1.573-0.441,2.269-0.882c1.135-0.804,1.914-2.014,2.193-3.385
			l-0.084-0.056c-0.229,0.076-0.41,0.133-0.551,0.16c-0.277,0.063-0.563,0.092-0.85,0.092c-0.827,0.021-1.627-0.309-2.198-0.916
			c-0.612-0.679-0.925-1.574-0.877-2.482c-0.056-1.07,0.335-2.112,1.079-2.881c0.675-0.686,1.594-1.07,2.554-1.063
			c1.086-0.021,2.116,0.462,2.791,1.314c0.765,0.986,1.155,2.217,1.093,3.469c0.055,2.042-0.871,3.985-2.492,5.217
			c-1.412,1.112-3.139,1.755-4.934,1.839v-0.426H290.052z"/>
		<path d="M304.575,73.385c-0.104,0.146-0.167,0.314-0.181,0.496c-0.014,0.14-0.035,0.336-0.049,0.587
			c-0.014,0.252-0.027,0.532-0.027,0.825c0,0.58,0.014,1.092,0.035,1.518c0.014,0.378,0.055,0.756,0.125,1.126
			c0.056,0.35,0.174,0.692,0.348,1c0.152,0.266,0.445,0.427,0.752,0.405c0.445,0.028,0.842-0.279,0.932-0.713
			c0.111-0.595,0.16-1.203,0.132-1.805c0.057-0.951-0.055-1.908-0.348-2.818c-0.167-0.468-0.612-0.775-1.112-0.769
			c-0.217-0.028-0.433,0.021-0.613,0.147 M309.099,68.419c-1.093,0.161-2.102,0.657-2.901,1.42
			c-0.773,0.776-1.309,1.763-1.559,2.832l0.084,0.056c0.193-0.07,0.367-0.111,0.508-0.146c0.285-0.07,0.569-0.098,0.861-0.098
			c0.801-0.008,1.573,0.286,2.158,0.832c0.661,0.678,0.995,1.608,0.918,2.553c0.077,1.098-0.327,2.167-1.105,2.943
			c-0.689,0.657-1.595,1.014-2.541,1.014c-1.051,0-2.053-0.461-2.728-1.272c-0.8-0.985-1.196-2.245-1.127-3.511
			c-0.049-1.937,0.778-3.783,2.261-5.021c1.463-1.217,3.271-1.931,5.164-2.028v0.434L309.099,68.419z"/>
		<path style="fill:none;stroke:#000000;stroke-width:1.38;stroke-linecap:round;stroke-linejoin:round;" d="M0.42,22.21h308.776"/>
		<path style="fill:none;stroke:#000000;stroke-width:1.38;stroke-linecap:round;stroke-linejoin:round;" d="M0.42,57.79h308.776"/>
	</g>
</g>
</svg>
